<?xml version="1.0" encoding="utf-8"?>
<!-- Generator: Adobe Illustrator 23.0.3, SVG Export Plug-In . SVG Version: 6.00 Build 0)  -->
<svg version="1.1" id="Calque_1" xmlns="http://www.w3.org/2000/svg" xmlns:xlink="http://www.w3.org/1999/xlink" x="0px" y="0px"
	 viewBox="0 0 25 25" style="enable-background:new 0 0 25 25;" xml:space="preserve">
<style type="text/css">
	.st0{fill:#404040;}
</style>
<g id="_x32_">
	<path class="st0" d="M22.08,3.23c-3.62-3.63-9.52-3.63-13.15,0c-2.98,2.98-3.51,7.5-1.58,11.03l-4.66,4.66
		c-0.01,0.01-0.02,0.02-0.03,0.03l-0.07,0.07c-0.02,0.01-0.03,0.02-0.03,0.03l-1.07,1.07c-0.9,0.9-0.9,2.36,0,3.26l0.44,0.44
		c0.44,0.44,1.02,0.68,1.63,0.68c0.61,0,1.19-0.24,1.63-0.68l1.1-1.1c0.01-0.01,0.02-0.02,0.03-0.03c0.01-0.01,0.02-0.02,0.03-0.03
		l4.69-4.7c1.38,0.76,2.92,1.14,4.46,1.14c2.38,0,4.76-0.91,6.57-2.72C25.7,12.75,25.7,6.85,22.08,3.23z M3.82,22.48
		c-0.1,0.1-0.21,0.12-0.27,0.12c-0.06,0-0.18-0.02-0.28-0.12l-0.44-0.44c-0.15-0.15-0.15-0.4,0-0.55l0.46-0.46l0.99,0.99L3.82,22.48
		z M9.42,16.88l-3.79,3.78l-0.99-0.99l3.78-3.79L9.42,16.88z M20.72,15.02c-2.88,2.88-7.56,2.88-10.44,0
		c-2.88-2.88-2.88-7.56,0-10.44c1.44-1.44,3.33-2.16,5.22-2.16c1.89,0,3.78,0.72,5.22,2.16C23.6,7.46,23.6,12.14,20.72,15.02z"/>
</g>
</svg>
